<svg width="100" height="100" viewBox="0 0 100 100" fill="none" xmlns="http://www.w3.org/2000/svg">
<g id="cypress">
<path id="Vector" d="M4.8 63.2004C3.6 59.0004 3 54.5004 3 50.0004C3 29.5004 15.9 10.7004 35 3.40039L37.5 9.90039C21.1 16.2004 10 32.4004 10 50.0004C10 53.9004 10.5 57.7004 11.5 61.4004L4.8 63.2004Z" fill="#AEAEAE"/>
<path id="Vector_2" d="M91.4004 30.2C84.0004 15.9 69.3004 7 53.1004 7C47.4004 7 41.8004 8.1 36.6004 10.3L33.9004 3.9C40.0004 1.3 46.5004 0 53.1004 0C71.9004 0 89.0004 10.3 97.6004 27L91.4004 30.2Z" fill="url(#paint0_linear_170_409)"/>
<path id="Vector_3" d="M38.1998 39.6998C42.1998 39.6998 45.4998 41.8998 47.1998 45.5998L47.2998 45.8998L54.0998 43.5998L53.9998 43.1998C51.3998 36.7998 45.2998 32.7998 38.1998 32.7998C33.1998 32.7998 29.0998 34.3998 25.7998 37.6998C22.4998 40.9998 20.7998 45.0998 20.7998 49.9998C20.7998 54.7998 22.4998 58.8998 25.7998 62.1998C29.1998 65.4998 33.1998 67.0998 38.1998 67.0998C45.2998 67.0998 51.3998 63.0998 53.9998 56.6998L54.0998 56.3998L47.2998 54.0998L47.1998 54.3998C45.6998 58.0998 42.2998 60.2998 38.1998 60.2998C35.3998 60.2998 32.9998 59.2998 31.0998 57.3998C29.1998 55.3998 28.1998 52.9998 28.1998 50.0998C28.1998 47.1998 29.0998 44.7998 31.0998 42.6998C32.9998 40.6998 35.2998 39.6998 38.1998 39.6998Z" fill="#1F1F1F"/>
<path id="Vector_4" d="M80.6998 33.5L70.9998 58L61.2998 33.5H53.2998L66.9998 66.9L57.2998 90.5L64.2998 91.9L88.2998 33.5H80.6998Z" fill="#1F1F1F"/>
<path id="Vector_5" d="M58.5002 87.5L56.8002 91.6C56.5002 92.4 55.7002 93 54.8002 93C54.2002 93 53.6002 93 53.1002 93C33.1002 93 15.4002 78.9 11.0002 59.5L4.2002 61C6.7002 71.9 12.8002 81.8 21.6002 88.8C30.5002 96 41.6002 100 53.0002 100H53.1002C53.8002 100 54.4002 100 55.1002 100C58.7002 99.8 61.9002 97.6 63.2002 94.3L65.4002 88.9L58.5002 87.5Z" fill="url(#paint1_linear_170_409)"/>
</g>
<defs>
<linearGradient id="paint0_linear_170_409" x1="47.9325" y1="-3.2478" x2="85.9844" y2="37.4224" gradientUnits="userSpaceOnUse">
<stop offset="0.0939" stop-color="#A6A6A6"/>
<stop offset="0.9883" stop-color="#A6A6A6" stop-opacity="0"/>
</linearGradient>
<linearGradient id="paint1_linear_170_409" x1="2.4688" y1="72.7416" x2="75.1655" y2="92.0909" gradientUnits="userSpaceOnUse">
<stop offset="0.0774" stop-color="#A6A6A6"/>
<stop offset="0.7617" stop-color="#1F1F1F"/>
</linearGradient>
</defs>
</svg>
