<svg width="100" height="100" viewBox="0 0 100 100" fill="none" xmlns="http://www.w3.org/2000/svg">
<g id="docker" clip-path="url(#clip0_170_415)">
<path id="Vector" d="M99 41.1004C98.7 40.9004 96.2 39.0004 90.9 39.0004C89.5 39.0004 88.1 39.1004 86.7 39.4004C85.7 32.3004 79.8 28.9004 79.5 28.7004L78.1 27.9004L77.2 29.3004C76 31.1004 75.2 33.1004 74.7 35.3004C73.7 39.3004 74.3 43.1004 76.4 46.4004C73.9 47.8004 69.9 48.1004 69.1 48.2004H3.09999C1.39999 48.0004 -8.33534e-06 49.4004 -8.33534e-06 51.1004C-0.100008 56.8004 0.899992 62.6004 2.89999 68.0004C5.19999 74.0004 8.49999 78.3004 12.9 81.0004C17.8 84.0004 25.8 85.7004 34.9 85.7004C39 85.7004 43.1 85.3004 47.1 84.6004C52.7 83.6004 58.1 81.6004 63 78.8004C67.1 76.4004 70.8 73.4004 73.9 69.9004C79.1 64.0004 82.2 57.4004 84.5 51.6004H85.4C91.1 51.6004 94.6 49.3004 96.6 47.4004C97.9 46.2004 98.9 44.7004 99.5 43.0004L99.9 41.8004L99 41.1004Z" fill="#7D7D7D"/>
<path id="Vector_2" d="M9.20039 46H18.0004C18.4004 46 18.8004 45.7 18.8004 45.2V37.3C18.8004 36.9 18.5004 36.5 18.0004 36.5H9.20039C8.80039 36.5 8.40039 36.8 8.40039 37.3V45.2C8.50039 45.7 8.80039 46 9.20039 46Z" fill="#7D7D7D"/>
<path id="Vector_3" d="M21.3996 46H30.1996C30.5996 46 30.9996 45.7 30.9996 45.2V37.3C30.9996 36.9 30.6996 36.5 30.1996 36.5H21.3996C20.9996 36.5 20.5996 36.8 20.5996 37.3V45.2C20.5996 45.7 20.9996 46 21.3996 46Z" fill="#7D7D7D"/>
<path id="Vector_4" d="M33.7004 46H42.5004C42.9004 46 43.3004 45.7 43.3004 45.2V37.3C43.3004 36.9 43.0004 36.5 42.5004 36.5H33.7004C33.3004 36.5 32.9004 36.8 32.9004 37.3V45.2C33.0004 45.7 33.3004 46 33.7004 46Z" fill="#7D7D7D"/>
<path id="Vector_5" d="M46.0002 46H54.8002C55.2002 46 55.6002 45.7 55.6002 45.2V37.3C55.6002 36.9 55.3002 36.5 54.8002 36.5H46.0002C45.6002 36.5 45.2002 36.8 45.2002 37.3V45.2C45.2002 45.7 45.5002 46 46.0002 46Z" fill="#7D7D7D"/>
<path id="Vector_6" d="M21.3996 34.7002H30.1996C30.5996 34.7002 30.9996 34.4002 30.9996 33.9002V26.0002C30.9996 25.6002 30.6996 25.2002 30.1996 25.2002H21.3996C20.9996 25.2002 20.5996 25.5002 20.5996 26.0002V33.9002C20.5996 34.4002 20.9996 34.7002 21.3996 34.7002Z" fill="#7D7D7D"/>
<path id="Vector_7" d="M33.7004 34.7002H42.5004C42.9004 34.7002 43.3004 34.4002 43.3004 33.9002V26.0002C43.3004 25.6002 43.0004 25.2002 42.5004 25.2002H33.7004C33.3004 25.2002 32.9004 25.5002 32.9004 26.0002V33.9002C33.0004 34.4002 33.3004 34.7002 33.7004 34.7002Z" fill="#7D7D7D"/>
<path id="Vector_8" d="M46.0002 34.7002H54.8002C55.2002 34.7002 55.6002 34.4002 55.6002 33.9002V26.0002C55.6002 25.6002 55.3002 25.2002 54.8002 25.2002H46.0002C45.6002 25.2002 45.2002 25.5002 45.2002 26.0002V33.9002C45.2002 34.4002 45.5002 34.7002 46.0002 34.7002Z" fill="#7D7D7D"/>
<path id="Vector_9" d="M46.0002 23.4004H54.8002C55.2002 23.4004 55.6002 23.1004 55.6002 22.6004V14.7004C55.6002 14.3004 55.3002 13.9004 54.8002 13.9004H46.0002C45.6002 13.9004 45.2002 14.2004 45.2002 14.7004V22.6004C45.2002 23.1004 45.5002 23.4004 46.0002 23.4004Z" fill="#7D7D7D"/>
<path id="Vector_10" d="M58.3 46H67.1C67.5 46 67.9 45.7 67.9 45.2V37.3C67.9 36.9 67.6 36.5 67.1 36.5H58.3C57.9 36.5 57.5 36.8 57.5 37.3V45.2C57.5 45.7 57.8 46 58.3 46Z" fill="#7D7D7D"/>
</g>
<defs>
<clipPath id="clip0_170_415">
<rect width="100" height="100" fill="white"/>
</clipPath>
</defs>
</svg>
