<svg width="100" height="100" viewBox="0 0 100 100" fill="none" xmlns="http://www.w3.org/2000/svg">
<g id="git" clip-path="url(#clip0_170_432)">
<path id="Vector" d="M98.1004 45.5004L54.5004 1.90039C52.0004 -0.599609 47.9004 -0.599609 45.4004 1.90039L36.3004 11.0004L47.8004 22.5004C50.5004 21.6004 53.5004 22.2004 55.7004 24.3004C57.8004 26.4004 58.4004 29.5004 57.5004 32.2004L68.6004 43.3004C71.3004 42.4004 74.4004 43.0004 76.5004 45.1004C79.5004 48.1004 79.5004 52.9004 76.5004 55.9004C73.5004 58.9004 68.7004 58.9004 65.7004 55.9004C63.4004 53.6004 62.9004 50.3004 64.0004 47.6004L53.6004 37.3004V64.5004C54.3004 64.9004 55.0004 65.4004 55.6004 65.9004C58.6004 68.9004 58.6004 73.7004 55.6004 76.7004C52.6004 79.7004 47.8004 79.7004 44.8004 76.7004C41.8004 73.7004 41.8004 68.9004 44.8004 65.9004C45.5004 65.2004 46.4004 64.6004 47.3004 64.2004V36.8004C46.4004 36.4004 45.5004 35.8004 44.8004 35.1004C42.5004 32.8004 42.0004 29.5004 43.1004 26.7004L31.8004 15.4004L1.90039 45.3004C-0.599609 47.8004 -0.599609 51.9004 1.90039 54.4004L45.6004 98.1004C48.1004 100.6 52.2004 100.6 54.7004 98.1004L98.2004 54.6004C100.6 52.1004 100.6 48.1004 98.1004 45.5004Z" fill="#757575"/>
</g>
<defs>
<clipPath id="clip0_170_432">
<rect width="100" height="100" fill="white"/>
</clipPath>
</defs>
</svg>
