<svg width="100" height="100" viewBox="0 0 100 100" fill="none" xmlns="http://www.w3.org/2000/svg">
<g id="github">
<path id="Vector" d="M50 1C22.4 1 0 23.4 0 51C0 73.1 14.3 91.8 34.2 98.4C36.7 98.9 37.6 97.3 37.6 96C37.6 94.8 37.6 90.9 37.5 86.7C23.6 89.7 20.7 80.8 20.7 80.8C18.4 75 15.1 73.5 15.1 73.5C10.6 70.4 15.4 70.5 15.4 70.5C20.4 70.9 23.1 75.7 23.1 75.7C27.6 83.3 34.8 81.1 37.7 79.9C38.1 76.7 39.4 74.5 40.9 73.2C29.8 71.9 18.1 67.6 18.1 48.5C18.1 43 20.1 38.6 23.3 35.1C22.8 33.8 21.1 28.8 23.8 21.9C23.8 21.9 28 20.6 37.6 27C41.6 25.9 45.9 25.3 50.1 25.3C54.3 25.3 58.6 25.9 62.6 27C72.1 20.5 76.3 21.9 76.3 21.9C79 28.8 77.3 33.9 76.8 35.1C80 38.6 81.9 43.1 81.9 48.5C81.9 67.7 70.2 71.9 59.1 73.2C60.9 74.8 62.5 77.8 62.5 82.5C62.5 89.2 62.4 94.6 62.4 96.2C62.4 97.5 63.3 99.1 65.8 98.6C85.7 91.8 100 73.1 100 51C100 23.4 77.6 1 50 1Z" fill="#161616"/>
<path id="Vector_2" d="M18.6998 72.1996C18.5998 72.3996 18.1997 72.4997 17.7997 72.3997C17.3997 72.1997 17.1998 71.8996 17.3998 71.5996C17.4998 71.2996 17.8997 71.2997 18.2997 71.3997C18.5997 71.5997 18.8998 71.9996 18.6998 72.1996ZM21.1998 74.3997C20.9998 74.5997 20.4998 74.4996 20.1998 74.1996C19.8998 73.8996 19.7998 73.3996 20.0998 73.1996C20.2998 72.9996 20.7998 73.0997 21.0998 73.3997C21.3998 73.6997 21.3998 74.1997 21.1998 74.3997ZM22.8998 77.1996C22.5998 77.3996 22.0998 77.1997 21.7997 76.7997C21.4997 76.3997 21.4997 75.7996 21.7997 75.5996C22.0998 75.3996 22.5998 75.5997 22.8998 75.9997C23.1998 76.4997 23.1998 76.9996 22.8998 77.1996ZM25.6998 80.4997C25.3998 80.7997 24.7998 80.6997 24.3998 80.2997C23.9998 79.8997 23.7998 79.2997 24.0998 78.9997C24.3998 78.6997 24.9997 78.7996 25.3997 79.1996C25.8997 79.5996 25.9998 80.1997 25.6998 80.4997ZM29.3997 81.5996C29.2997 81.9996 28.6998 82.1997 28.1998 81.9997C27.5998 81.7997 27.2997 81.3997 27.3997 80.9997C27.4998 80.5997 28.0998 80.3996 28.6998 80.5996C29.1998 80.6996 29.4998 81.1996 29.3997 81.5996ZM33.5997 81.9997C33.5997 82.3997 33.0998 82.7997 32.4998 82.7997C31.8997 82.7997 31.3997 82.4996 31.3997 82.0996C31.3997 81.6996 31.8997 81.2997 32.4998 81.2997C33.0998 81.2997 33.5997 81.5997 33.5997 81.9997ZM37.6998 81.8997C37.7998 82.2997 37.3997 82.6997 36.7997 82.7997C36.1997 82.8997 35.6997 82.6997 35.5997 82.2997C35.4997 81.8997 35.8997 81.4997 36.4998 81.3997C37.0998 81.1997 37.6998 81.4997 37.6998 81.8997Z" fill="#161616"/>
</g>
</svg>
