<svg width="100" height="100" viewBox="0 0 100 100" fill="none" xmlns="http://www.w3.org/2000/svg">
<g id="gitlab">
<path id="Vector" d="M49.9996 96.1004L68.3996 39.4004H31.5996L49.9996 96.1004Z" fill="#707070"/>
<path id="Vector_2" d="M49.9998 96.1004L31.5998 39.4004H5.7998L49.9998 96.1004Z" fill="#909090"/>
<path id="Vector_3" d="M5.7998 39.4004L0.199805 56.7004C-0.00019531 57.5004 -0.00019531 58.3004 0.199805 59.1004C0.399805 59.9004 0.899805 60.5004 1.5998 61.0004L49.9998 96.1004L5.7998 39.4004Z" fill="#B0B0B0"/>
<path id="Vector_4" d="M5.7998 39.4002H31.5998L20.4998 5.3002C19.8998 3.5002 17.3998 3.5002 16.8998 5.3002L5.7998 39.4002Z" fill="#707070"/>
<path id="Vector_5" d="M50 96.1004L68.4 39.4004H94.2L50 96.1004Z" fill="#909090"/>
<path id="Vector_6" d="M94.2 39.4004L99.8 56.6004C100 57.4004 100 58.2004 99.8 59.0004C99.6 59.8004 99.1 60.4004 98.4 60.9004L50 96.1004L94.2 39.4004Z" fill="#B0B0B0"/>
<path id="Vector_7" d="M94.2004 39.4002H68.4004L79.5004 5.3002C80.1004 3.5002 82.6004 3.5002 83.1004 5.3002L94.2004 39.4002Z" fill="#707070"/>
</g>
</svg>
