<svg width="100" height="100" viewBox="0 0 100 100" fill="none" xmlns="http://www.w3.org/2000/svg">
<g id="js" clip-path="url(#clip0_170_450)">
<path id="Vector" d="M100 0H0V100H100V0Z" fill="#D1D1D1"/>
<path id="Vector_2" d="M67.1998 78.1004C69.1998 81.4004 71.7998 83.8004 76.4998 83.8004C80.3998 83.8004 82.8998 81.9004 82.8998 79.2004C82.8998 76.0004 80.2998 74.8004 76.0998 73.0004L73.7998 72.0004C66.9998 69.1004 62.4998 65.5004 62.4998 57.8004C62.4998 50.8004 67.8998 45.4004 76.2998 45.4004C82.2998 45.4004 86.5998 47.5004 89.6998 52.9004L82.3998 57.6004C80.7998 54.7004 79.0998 53.6004 76.3998 53.6004C73.5998 53.6004 71.8998 55.3004 71.8998 57.6004C71.8998 60.4004 73.5998 61.6004 77.6998 63.3004L79.9998 64.3004C87.9998 67.7004 92.4998 71.2004 92.4998 79.1004C92.4998 87.6004 85.8998 92.2004 76.8998 92.2004C68.1998 92.2004 62.4998 88.0004 59.7998 82.6004L67.1998 78.1004ZM33.9998 78.9004C35.4998 81.5004 36.7998 83.7004 39.9998 83.7004C43.0998 83.7004 44.9998 82.5004 44.9998 77.8004V45.8004H54.3998V78.0004C54.3998 87.7004 48.6998 92.2004 40.3998 92.2004C32.8998 92.2004 28.4998 88.3004 26.2998 83.6004L33.9998 78.9004Z" fill="black"/>
</g>
<defs>
<clipPath id="clip0_170_450">
<rect width="100" height="100" fill="white"/>
</clipPath>
</defs>
</svg>
