<svg width="100" height="100" viewBox="0 0 100 100" fill="none" xmlns="http://www.w3.org/2000/svg">
<g id="mongodb" clip-path="url(#clip0_170_453)">
<path id="Vector" d="M50.0998 0.299805L52.7998 5.2998C53.3998 6.1998 53.9998 6.9998 54.7998 7.7998C56.9998 9.9998 59.0998 12.3998 61.0998 14.8998C65.5998 20.7998 68.6998 27.3998 70.7998 34.5998C72.0998 38.9998 72.7998 43.3998 72.8998 47.8998C73.0998 61.3998 68.4998 72.9998 59.1998 82.5998C57.6998 84.0998 55.9998 85.4998 54.2998 86.7998C53.3998 86.7998 52.8998 86.0998 52.5998 85.3998C51.8998 84.1998 51.3998 82.8998 51.1998 81.4998C50.8998 79.8998 50.6998 78.1998 50.7998 76.4998V75.6998C50.5998 75.6998 49.7998 0.699805 50.0998 0.299805Z" fill="#797979"/>
<path id="Vector_2" d="M50.0996 0.100228C49.9996 -0.0997721 49.8996 0.000227928 49.7996 0.200228C49.8996 1.30023 49.4996 2.30023 48.8996 3.20023C48.1996 4.10023 47.3996 4.80023 46.4996 5.60023C41.6996 9.80023 37.7996 14.9002 34.7996 20.5002C30.6996 28.1002 28.5996 36.3002 28.0996 44.9002C27.7996 48.0002 29.0996 59.0002 30.0996 62.1002C32.7996 70.5002 37.5996 77.5002 43.7996 83.6002C45.2996 85.1002 46.9996 86.4002 48.5996 87.7002C49.0996 87.7002 49.0996 87.3002 49.2996 86.9002C49.4996 86.2002 49.6996 85.5002 49.7996 84.8002L50.8996 76.6002L50.0996 0.100228Z" fill="#8E8E8E"/>
<path id="Vector_3" d="M52.7996 90.1002C52.8996 88.9002 53.4996 87.8002 54.1996 86.8002C53.4996 86.5002 53.0996 86.0002 52.6996 85.4002C52.3996 84.8002 52.0996 84.2002 51.8996 83.6002C51.0996 81.3002 50.9996 78.9002 50.7996 76.6002V75.2002C50.4996 75.4002 50.4996 77.3002 50.4996 77.5002C50.2996 80.0002 49.9996 82.4002 49.4996 84.9002C49.2996 85.9002 49.1996 86.9002 48.5996 87.7002C48.5996 87.8002 48.5996 87.9002 48.6996 88.1002C49.6996 91.0002 49.8996 93.9002 50.0996 96.9002V98.0002C50.0996 99.3002 49.9996 99.0002 51.0996 99.5002C51.4996 99.7002 51.9996 99.7002 52.4996 100C52.7996 100 52.8996 99.7002 52.8996 99.5002L52.6996 97.7002V92.7002C52.4996 91.8002 52.6996 91.0002 52.7996 90.1002Z" fill="#C0C0C0"/>
</g>
<defs>
<clipPath id="clip0_170_453">
<rect width="100" height="100" fill="white"/>
</clipPath>
</defs>
</svg>
