<svg width="100" height="100" viewBox="0 0 100 100" fill="none" xmlns="http://www.w3.org/2000/svg">
<g id="mysql" clip-path="url(#clip0_170_457)">
<path id="Vector" d="M92.1003 77.1002C86.7003 77.0002 82.4003 77.5002 78.9003 79.0002C77.9003 79.4002 76.2003 79.4001 76.1003 80.7001C76.6003 81.3001 76.7003 82.2002 77.2003 82.9002C78.0003 84.3002 79.4003 86.1002 80.7003 87.1002C82.1003 88.2001 83.6003 89.3002 85.1003 90.3002C87.8003 92.0002 90.7003 92.9002 93.3003 94.6002C94.8003 95.6002 96.3003 96.8002 97.8003 97.8002C98.5003 98.4002 99.0003 99.2001 100 99.6002V99.4002C99.5003 98.8002 99.4003 97.9001 98.9003 97.2001C98.2003 96.5002 97.5003 95.9001 96.9003 95.2001C94.9003 92.5002 92.5003 90.2001 89.8003 88.2001C87.6003 86.7001 82.9003 84.6002 82.0003 82.1002L81.9003 82.0002C83.4003 81.9002 85.2003 81.3002 86.6003 80.9002C88.9003 80.3002 91.0003 80.4002 93.4003 79.8002C94.5003 79.5002 95.6003 79.2002 96.7003 78.8002V78.2001C95.5003 77.0002 94.6003 75.3001 93.3003 74.1002C89.8003 71.1002 86.0003 68.1002 82.1003 65.6002C80.0003 64.2001 77.3003 63.3002 75.0003 62.1002C74.2003 61.7001 72.8003 61.5002 72.3003 60.8002C71.1003 59.3002 70.4003 57.3002 69.5003 55.5002C67.5003 51.7002 65.6003 47.5002 63.9003 43.5002C62.7003 40.8002 61.9003 38.1002 60.4003 35.6002C53.4003 23.9002 45.8003 16.8002 34.1003 9.80015C31.6003 8.40015 28.6003 7.70015 25.4003 7.00015C23.7003 6.90015 22.0003 6.80015 20.3003 6.70015C19.2003 6.20015 18.1003 4.90015 17.2003 4.30015C13.3003 1.80015 3.30032 -3.59985 0.400324 3.50015C-1.39968 8.00015 3.10032 12.4002 4.70032 14.7002C5.90032 16.3002 7.40032 18.1002 8.20032 19.9002C8.70032 21.1002 8.80032 22.3002 9.30032 23.6002C10.4003 26.6002 11.4003 30.0002 12.8003 32.9002C13.5003 34.3002 14.4003 35.9002 15.3003 37.2002C15.8003 38.0002 16.8003 38.3002 17.0003 39.5002C16.0003 40.9002 16.0003 43.0002 15.4003 44.7002C13.0003 52.5002 13.9003 62.2002 17.4003 67.9002C18.5003 69.6002 21.1003 73.4002 24.5003 72.0002C27.6003 70.8002 26.9003 66.8002 27.8003 63.4002C28.0003 62.6002 27.9003 62.0002 28.3003 61.5002V61.6002C29.3003 63.5002 30.2003 65.4002 31.1003 67.3002C33.2003 70.7002 36.9003 74.2001 39.9003 76.6002C41.5003 77.8001 42.8003 80.0002 44.9003 80.7001V80.5002H44.8003C44.4003 79.9002 43.8003 79.6002 43.2003 79.1002C42.0003 77.9002 40.6003 76.3002 39.7003 75.0002C36.8003 71.1002 34.3003 66.9002 32.1003 62.4002C31.0003 60.3002 30.1003 57.9002 29.2003 55.8002C28.8003 55.0002 28.8003 53.7002 28.1003 53.3002C27.1003 54.8002 25.6003 56.1002 24.8003 58.0002C23.5003 61.0002 23.4003 64.6002 22.9003 68.4002C22.6003 68.5002 22.8003 68.4002 22.6003 68.5002C20.4003 67.9002 19.7003 65.7001 18.9003 63.7002C16.9003 58.8002 16.5003 50.9002 18.3003 45.3002C18.8003 43.8002 20.8003 39.3002 20.0003 37.9002C19.6003 36.6002 18.2003 35.8002 17.5003 34.8002C16.6003 33.5002 15.7003 31.8002 15.1003 30.4002C13.5003 26.5002 12.7003 22.3002 10.9003 18.4002C10.0003 16.5002 8.50032 14.7002 7.40032 13.0002C6.10032 11.1002 4.70032 9.80015 3.70032 7.60015C3.40032 6.80015 2.90032 5.60015 3.40032 4.80015C3.50032 4.20015 3.80032 4.00015 4.40032 3.90015C5.30032 3.10015 7.80032 4.10015 8.70032 4.50015C11.2003 5.50015 13.3003 6.50015 15.4003 8.00015C16.4003 8.70015 17.4003 10.0002 18.6003 10.3002H20.0003C22.2003 10.8002 24.6003 10.4002 26.7003 11.1002C30.3003 12.3002 33.6003 14.0002 36.5003 15.9002C45.4003 21.6002 52.8003 29.8002 57.7003 39.5002C58.5003 41.1002 58.9003 42.5002 59.6003 44.2002C61.0003 47.6002 62.8003 51.0002 64.2003 54.3002C65.6003 57.5002 67.0003 60.9002 69.0003 63.6002C70.0003 65.0002 74.1003 65.8001 75.9003 66.6002C77.3003 67.2001 79.4003 67.8002 80.6003 68.5002C82.9003 69.9002 85.2003 71.6002 87.4003 73.2001C88.5003 74.0002 91.9003 75.7001 92.1003 77.1002Z" fill="#3D3D3D"/>
<path id="Vector_2" d="M22.7004 17.0996C21.5004 17.0996 20.7004 17.1996 19.9004 17.3996V17.4996H20.0004C20.5004 18.5996 21.5004 19.3996 22.2004 20.2996C22.7004 21.3996 23.2004 22.4996 23.8004 23.5996C23.9004 23.4996 23.9004 23.4996 23.9004 23.4996C24.9004 22.7996 25.3004 21.6996 25.3004 19.9996C24.9004 19.4996 24.8004 18.9996 24.5004 18.5996C24.2004 17.9996 23.3004 17.5996 22.7004 17.0996Z" fill="#3D3D3D"/>
</g>
<defs>
<clipPath id="clip0_170_457">
<rect width="100" height="100" fill="white"/>
</clipPath>
</defs>
</svg>
