<svg width="100" height="100" viewBox="0 0 100 100" fill="none" xmlns="http://www.w3.org/2000/svg">
<g id="php">
<path id="Vector" fill-rule="evenodd" clip-rule="evenodd" d="M50 75.7003C77.6 75.7003 100 64.4003 100 50.4003C100 36.4003 77.6 25.1003 50 25.1003C22.4 25.0003 0 36.3003 0 50.3003C0 64.3003 22.4 75.7003 50 75.7003Z" fill="#818181"/>
<path id="Vector_2" fill-rule="evenodd" clip-rule="evenodd" d="M60.1 58.5L62.6 45.7C63.2 42.8 62.7 40.7 61.2 39.3C59.8 38 57.3 37.3 53.8 37.3H49.5L50.7 31C50.7 30.9 50.7 30.8 50.7 30.6C50.7 30.5 50.6 30.4 50.5 30.3C50.4 30.2 50.3 30.1 50.2 30.1C50.1 30 50 30 49.9 30H44C43.6 30 43.3 30.3 43.2 30.7L40.6 44.3C40.4 42.8 39.8 41.5 38.8 40.4C37.1 38.4 34.3 37.4 30.6 37.4H19.1C18.7 37.4 18.4 37.7 18.3 38.1L13 65.5C13 65.7 13 66 13.2 66.2C13.4 66.4 13.6 66.5 13.8 66.5H19.8C20.2 66.5 20.5 66.2 20.6 65.8L21.9 59.2H26.3C28.6 59.2 30.6 58.9 32.1 58.4C33.7 57.9 35.1 57 36.4 55.8C37.4 54.9 38.3 53.8 38.9 52.7L37.8 58.2C37.8 58.4 37.8 58.7 38 58.9C38.2 59.1 38.4 59.2 38.6 59.2H44.5C44.9 59.2 45.2 58.9 45.3 58.5L48.2 43.4H52.3C54 43.4 54.5 43.7 54.7 43.9C54.8 44 55.1 44.5 54.8 46L52.4 58.1C52.4 58.2 52.4 58.3 52.4 58.5C52.4 58.6 52.5 58.7 52.6 58.8C52.7 58.9 52.8 59 52.9 59C53 59.1 53.1 59.1 53.2 59.1H59.2C59.4 59.1 59.6 59 59.7 58.9C60 58.9 60.1 58.7 60.1 58.5ZM32.6 48C32.2 49.9 31.5 51.3 30.5 52.1C29.5 52.9 27.8 53.3 25.6 53.3H23L24.9 43.4H28.3C30.8 43.4 31.8 43.9 32.2 44.4C32.9 45 33 46.2 32.6 48ZM85.1 40.4C83.4 38.4 80.6 37.4 76.9 37.4H65.4C65 37.4 64.7 37.7 64.6 38.1L59.3 65.5C59.3 65.7 59.3 66 59.5 66.2C59.7 66.4 59.9 66.5 60.1 66.5H66.1C66.5 66.5 66.8 66.2 66.9 65.8L68.2 59.2H72.6C74.9 59.2 76.9 58.9 78.4 58.4C80 57.9 81.4 57 82.7 55.8C83.8 54.8 84.6 53.7 85.3 52.6C86 51.4 86.4 50.1 86.7 48.7C87.4 45.2 86.9 42.4 85.1 40.4ZM79.3 48C78.9 49.9 78.2 51.3 77.2 52.1C76.2 52.9 74.5 53.3 72.3 53.3H69.7L71.6 43.4H75C77.5 43.4 78.5 43.9 78.9 44.4C79.5 45 79.6 46.2 79.3 48Z" fill="white"/>
<path id="Vector_3" fill-rule="evenodd" clip-rule="evenodd" d="M28.1996 42.6004C30.4996 42.6004 31.9996 43.0004 32.6996 43.9004C33.4996 44.7004 33.5996 46.2004 33.1996 48.2004C32.7996 50.3004 31.9996 51.8004 30.7996 52.7004C29.5996 53.6004 27.7996 54.1004 25.3996 54.1004H21.7996L23.9996 42.6004H28.1996ZM13.5996 65.7004H19.5996L20.9996 58.4004H26.0996C28.3996 58.4004 30.1996 58.2004 31.6996 57.7004C33.1996 57.2004 34.4996 56.4004 35.6996 55.3004C36.6996 54.4004 37.4996 53.4004 38.0996 52.3004C38.6996 51.2004 39.1996 50.0004 39.3996 48.6004C39.9996 45.3004 39.5996 42.8004 37.9996 41.0004C36.3996 39.2004 33.8996 38.3004 30.3996 38.3004H18.9996L13.5996 65.7004ZM43.7996 30.9004H49.6996L48.2996 38.2004H53.5996C56.8996 38.2004 59.1996 38.8004 60.4996 39.9004C61.7996 41.1004 62.0996 42.9004 61.5996 45.5004L59.0996 58.3004H53.0996L55.4996 46.2004C55.7996 44.8004 55.6996 43.9004 55.1996 43.4004C54.6996 42.9004 53.6996 42.6004 52.1996 42.6004H47.4996L44.3996 58.3004H38.4996L43.7996 30.9004ZM74.7996 42.6004C77.0996 42.6004 78.5996 43.0004 79.2996 43.9004C80.0996 44.7004 80.1996 46.2004 79.7996 48.2004C79.3996 50.3004 78.5996 51.8004 77.3996 52.7004C76.1996 53.6004 74.3996 54.1004 71.9996 54.1004H68.3996L70.5996 42.6004H74.7996ZM60.2996 65.7004H66.2996L67.6996 58.4004H72.7996C75.0996 58.4004 76.8996 58.2004 78.3996 57.7004C79.8996 57.2004 81.1996 56.4004 82.3996 55.3004C83.3996 54.4004 84.1996 53.4004 84.7996 52.3004C85.3996 51.2004 85.8996 50.0004 86.0996 48.6004C86.6996 45.3004 86.2996 42.8004 84.6996 41.0004C83.0996 39.2004 80.5996 38.3004 77.0996 38.3004H65.5996L60.2996 65.7004Z" fill="black"/>
</g>
</svg>
