<svg width="101" height="100" viewBox="0 0 101 100" fill="none" xmlns="http://www.w3.org/2000/svg">
<g id="reactjs">
<path id="Vector" d="M50.3 58.8002C55.2 58.8002 59.1 54.9002 59.1 50.0002C59.1 45.1002 55.2 41.2002 50.3 41.2002C45.4 41.2002 41.5 45.1002 41.5 50.0002C41.5 54.9002 45.4 58.8002 50.3 58.8002Z" fill="#B9B9B9"/>
<path id="Vector_2" d="M50.3 68.1004C76.4 68.1004 97.6 60.0004 97.6 50.0004C97.6 40.0004 76.4 31.9004 50.3 31.9004C24.2 31.9004 3 40.0004 3 50.0004C3 60.0004 24.2 68.1004 50.3 68.1004Z" stroke="#B9B9B9" stroke-width="5"/>
<path id="Vector_3" d="M34.7004 58.9995C47.7004 81.6995 65.3004 95.9995 74.0004 90.9995C82.6004 85.9995 79.1004 63.5995 66.0004 40.9995C52.9004 18.2995 35.3004 3.99953 26.7004 8.99953C18.0004 13.9995 21.6004 36.3995 34.7004 58.9995Z" stroke="#B9B9B9" stroke-width="5"/>
<path id="Vector_4" d="M34.7002 40.9995C21.6002 63.5995 18.1002 85.9995 26.7002 90.9995C35.3002 95.9995 52.9002 81.6995 65.9002 58.9995C79.0002 36.3995 82.6002 13.9995 74.0002 8.99953C65.3002 3.99953 47.7002 18.2995 34.7002 40.9995Z" stroke="#B9B9B9" stroke-width="5"/>
</g>
</svg>
