<svg width="100" height="100" viewBox="0 0 100 100" fill="none" xmlns="http://www.w3.org/2000/svg">
<g id="sass">
<path id="Vector" d="M86.0996 56.1001C82.5996 56.1001 79.5996 57.0001 76.9996 58.2001C76.0996 56.4001 75.0996 54.7001 74.9996 53.5001C74.7996 52.1001 74.5996 51.2001 74.7996 49.6001C74.9996 47.9001 75.9996 45.5001 75.9996 45.3001C75.9996 45.1001 75.7996 44.3001 73.7996 44.2001C71.7996 44.2001 70.0996 44.6001 69.8996 45.1001C69.6996 45.6001 69.2996 46.8001 69.0996 48.1001C68.7996 49.9001 65.0996 56.4001 62.9996 59.9001C62.2996 58.6001 61.6996 57.4001 61.5996 56.5001C61.3996 55.1001 61.1996 54.2001 61.3996 52.6001C61.5996 51.0001 62.5996 48.5001 62.5996 48.3001C62.5996 48.1001 62.3996 47.3001 60.3996 47.2001C58.3996 47.2001 56.6996 47.6001 56.4996 48.1001C56.2996 48.6001 56.0996 49.9001 55.6996 51.1001C55.2996 52.3001 50.3996 63.2001 49.0996 66.0001C48.3996 67.4001 47.8996 68.6001 47.4996 69.4001C47.4996 69.4001 47.4996 69.5001 47.3996 69.5001C47.0996 70.2001 46.8996 70.5001 46.8996 70.5001C46.5996 71.0001 46.2996 71.4001 46.1996 71.4001C46.0996 71.4001 45.8996 70.1001 46.1996 68.3001C46.8996 64.5001 48.6996 58.6001 48.5996 58.4001C48.5996 58.3001 48.8996 57.3001 47.4996 56.7001C46.0996 56.2001 45.5996 57.0001 45.3996 57.0001C45.2996 57.0001 45.1996 57.3001 45.1996 57.3001C45.1996 57.3001 46.7996 50.7001 42.1996 50.7001C39.2996 50.7001 35.2996 53.9001 33.3996 56.7001C32.1996 57.4001 29.4996 58.8001 26.6996 60.4001C25.5996 61.0001 24.4996 61.6001 23.4996 62.2001C23.3996 62.1001 23.3996 62.0001 23.2996 62.0001C17.3996 56.2001 7.09961 52.0001 7.49961 44.0001C7.69961 41.0001 8.69961 33.4001 27.2996 24.1001C42.6996 16.5001 54.8996 18.6001 56.9996 23.3001C59.9996 29.9001 50.3996 42.3001 34.5996 44.1001C28.4996 44.8001 25.3996 42.4001 24.5996 41.6001C23.7996 40.7001 23.5996 40.6001 23.2996 40.8001C22.7996 41.1001 23.0996 41.9001 23.2996 42.4001C23.7996 43.6001 25.6996 45.8001 28.9996 46.9001C31.8996 47.8001 38.9996 48.4001 47.5996 45.1001C57.1996 41.4001 64.7996 31.0001 62.4996 22.3001C60.2996 13.5001 45.6996 10.6001 31.8996 15.5001C23.6996 18.4001 14.7996 23.0001 8.39961 29.0001C0.79961 36.0001 -0.40039 42.2001 0.0996102 44.8001C1.89961 54.0001 14.5996 60.0001 19.5996 64.4001C19.2996 64.5001 19.0996 64.7001 18.8996 64.8001C16.3996 66.1001 6.69961 71.1001 4.29961 76.5001C1.59961 82.6001 4.69961 86.9001 6.79961 87.5001C13.2996 89.3001 19.9996 86.1001 23.5996 80.7001C27.1996 75.3001 26.7996 68.4001 25.0996 65.2001C25.0996 65.2001 25.0996 65.1001 24.9996 65.1001C25.6996 64.7001 26.2996 64.3001 26.9996 63.9001C28.2996 63.1001 29.5996 62.4001 30.6996 61.8001C30.0996 63.5001 29.5996 65.5001 29.3996 68.4001C29.0996 71.8001 30.4996 76.3001 32.3996 78.0001C33.1996 78.8001 34.1996 78.8001 34.7996 78.8001C36.9996 78.8001 37.8996 77.0001 38.9996 74.9001C40.2996 72.3001 41.4996 69.3001 41.4996 69.3001C41.4996 69.3001 39.9996 77.4001 43.9996 77.4001C45.4996 77.4001 46.8996 75.5001 47.5996 74.5001C47.5996 74.5001 47.5996 74.4001 47.6996 74.3001C47.7996 74.1001 47.8996 73.9001 47.8996 73.9001C48.4996 72.9001 49.7996 70.6001 51.7996 66.7001C54.2996 61.7001 56.6996 55.5001 56.6996 55.5001C56.6996 55.5001 56.8996 57.0001 57.6996 59.5001C58.0996 61.0001 59.0996 62.6001 59.7996 64.2001C59.1996 65.0001 58.8996 65.5001 58.8996 65.5001C58.3996 66.1001 57.8996 66.8001 57.2996 67.5001C55.2996 69.9001 52.8996 72.6001 52.5996 73.4001C52.1996 74.3001 52.2996 75.0001 52.9996 75.6001C53.4996 76.0001 54.4996 76.1001 55.3996 76.0001C57.1996 75.9001 58.4996 75.4001 59.0996 75.2001C60.0996 74.9001 61.1996 74.3001 62.2996 73.5001C64.2996 72.1001 65.3996 70.0001 65.2996 67.3001C65.1996 65.8001 64.7996 64.3001 64.0996 62.9001C64.2996 62.6001 64.3996 62.4001 64.5996 62.1001C67.6996 57.6001 70.0996 52.6001 70.0996 52.6001C70.0996 52.6001 70.2996 54.1001 71.0996 56.6001C71.4996 57.9001 72.1996 59.3001 72.8996 60.6001C69.9996 63.0001 68.1996 65.7001 67.5996 67.5001C66.3996 70.8001 67.2996 72.3001 68.9996 72.7001C69.7996 72.9001 70.8996 72.5001 71.6996 72.2001C72.6996 71.9001 73.8996 71.3001 75.0996 70.5001C77.0996 69.1001 78.8996 67.0001 78.7996 64.3001C78.6996 63.1001 78.3996 61.8001 77.9996 60.6001C80.4996 59.6001 83.5996 59.0001 87.6996 59.5001C96.3996 60.5001 98.0996 65.9001 97.7996 68.2001C97.4996 70.5001 95.5996 71.7001 94.9996 72.1001C94.3996 72.5001 94.1996 72.6001 94.2996 72.9001C94.3996 73.3001 94.6996 73.3001 95.1996 73.2001C95.8996 73.1001 99.7996 71.4001 99.8996 67.2001C100.3 61.9001 95.0996 56.1001 86.0996 56.1001ZM18.9996 78.7001C16.0996 81.8001 12.0996 83.0001 10.3996 82.0001C8.49961 80.9001 9.29961 76.3001 12.7996 73.0001C14.9996 71.0001 17.6996 69.1001 19.5996 67.9001C19.9996 67.6001 20.5996 67.3001 21.3996 66.8001C21.4996 66.7001 21.5996 66.7001 21.5996 66.7001C21.6996 66.6001 21.8996 66.5001 21.9996 66.4001C23.2996 71.2001 22.0996 75.4001 18.9996 78.7001ZM39.9996 64.4001C38.9996 66.8001 36.8996 73.1001 35.5996 72.8001C34.4996 72.5001 33.7996 67.8001 35.3996 63.1001C36.1996 60.7001 37.7996 57.9001 38.7996 56.8001C40.3996 55.0001 42.0996 54.5001 42.4996 55.2001C43.0996 56.1001 40.6996 62.9001 39.9996 64.4001ZM57.3996 72.7001C56.9996 72.9001 56.5996 73.1001 56.3996 73.0001C56.2996 72.9001 56.5996 72.6001 56.5996 72.6001C56.5996 72.6001 58.7996 70.3001 59.5996 69.2001C60.0996 68.6001 60.6996 67.8001 61.2996 67.0001C61.2996 67.1001 61.2996 67.2001 61.2996 67.2001C61.2996 70.1001 58.5996 72.0001 57.3996 72.7001ZM70.6996 69.7001C70.3996 69.5001 70.3996 68.8001 71.4996 66.5001C71.8996 65.6001 72.8996 64.1001 74.4996 62.7001C74.6996 63.3001 74.7996 63.9001 74.7996 64.4001C74.7996 67.8001 72.2996 69.1001 70.6996 69.7001Z" fill="#8B8B8B"/>
</g>
</svg>
