<svg width="100" height="100" viewBox="0 0 100 100" fill="none" xmlns="http://www.w3.org/2000/svg">
<g id="storybook" clip-path="url(#clip0_170_481)">
<path id="Vector" d="M13.1 92.1L10 9.6C10 8.3 10.4 7 11.3 6C12.2 5 13.4 4.4 14.7 4.4L84.9 0C85.6 0 86.3 0.1 86.9 0.3C87.5 0.5 88.1 0.9 88.6 1.4C89.1 1.9 89.5 2.4 89.8 3.1C90.1 3.7 90.2 4.4 90.2 5.1V95C90.2 95.7 90.1 96.4 89.8 97C89.5 97.6 89.1 98.2 88.7 98.7C88.2 99.2 87.6 99.5 87 99.8C86.4 100 85.7 100.1 85 100.1L17.9 97.1C16.6 97 15.4 96.5 14.6 95.6C13.7 94.6 13.2 93.4 13.1 92.1Z" fill="#858585"/>
<path id="Vector_2" fill-rule="evenodd" clip-rule="evenodd" d="M79.4002 0.400391L69.7001 1.00039L69.2001 12.3004C69.2001 12.4004 69.2002 12.6004 69.3002 12.7004C69.4002 12.8004 69.5001 12.9004 69.6001 13.0004C69.7001 13.1004 69.9002 13.1004 70.0001 13.1004C70.1001 13.1004 70.3002 13.0004 70.4002 13.0004L74.8002 9.70039L78.5001 12.6004C78.6001 12.7004 78.7001 12.7004 78.9002 12.8004C79.0001 12.8004 79.2002 12.8004 79.3002 12.7004C79.4002 12.6004 79.5001 12.5004 79.6001 12.4004C79.7001 12.3004 79.7001 12.1004 79.7001 12.0004L79.4002 0.400391ZM71.9002 38.3004C70.1002 39.7004 57.0001 40.6004 57.0001 38.7004C57.3001 31.2004 53.9001 30.9004 52.1001 30.9004C50.3001 30.9004 47.4001 31.4004 47.4001 35.4004C47.4001 39.5004 51.7001 41.8004 56.8001 44.5004C64.0001 48.3004 72.8002 53.0004 72.8002 64.7004C72.7002 75.8004 63.6001 82.0004 52.0001 82.0004C40.0001 82.0004 29.6001 77.2004 30.7001 60.4004C31.2001 58.4004 46.4001 58.9004 46.4001 60.4004C46.2001 67.3004 47.8001 69.4004 51.8001 69.4004C54.9001 69.4004 56.3001 67.7004 56.3001 64.9004C56.3001 60.6004 51.8001 58.1004 46.6001 55.1004C39.6001 51.1004 31.3001 46.5004 31.3001 35.8004C31.3001 25.1004 38.6001 18.0004 51.7001 18.0004C64.8001 18.0004 71.9002 25.0004 71.9002 38.3004Z" fill="white"/>
</g>
<defs>
<clipPath id="clip0_170_481">
<rect width="100" height="100" fill="white"/>
</clipPath>
</defs>
</svg>
