<svg width="100" height="100" viewBox="0 0 100 100" fill="none" xmlns="http://www.w3.org/2000/svg">
<g id="typescript" clip-path="url(#clip0_170_491)">
<path id="Vector" d="M0 0H100V100H0V0Z" fill="#5F5F5F"/>
<path id="Vector_2" d="M48.0004 36.9996H52.8004V45.2996H39.8004V82.0996L39.5004 82.1996C39.0004 82.2996 32.9004 82.2996 31.5004 82.1996L30.4004 82.0996V45.2996H17.4004V36.9996H21.5004C23.7004 36.9996 29.5004 36.9996 34.3004 36.9996C39.3004 36.9996 45.4004 36.9996 48.0004 36.9996ZM84.6004 78.2996C82.7004 80.2996 80.6004 81.3996 77.2004 82.3996C75.7004 82.7996 75.5004 82.7996 72.1004 82.7996C68.8004 82.7996 68.5004 82.7996 66.9004 82.3996C62.7004 81.2996 59.3004 79.1996 57.0004 76.1996C56.3004 75.3996 55.3004 73.5996 55.3004 73.3996C55.3004 73.2996 55.5004 73.1996 55.7004 73.0996C55.9004 72.9996 56.3004 72.6996 56.7004 72.4996C57.0004 72.2996 57.7004 71.8996 58.1004 71.6996C58.5004 71.4996 59.7004 70.7996 60.8004 70.0996C61.9004 69.4996 62.8004 68.8996 62.9004 68.8996C63.0004 68.8996 63.2004 69.0996 63.4004 69.3996C64.3004 70.9996 66.5004 72.9996 68.1004 73.6996C69.1004 74.0996 71.2004 74.5996 72.2004 74.5996C73.1004 74.5996 74.9004 74.1996 75.8004 73.7996C76.8004 73.2996 77.3004 72.8996 77.9004 71.9996C78.3004 71.3996 78.4004 71.1996 78.3004 69.9996C78.3004 68.8996 78.2004 68.5996 77.9004 67.9996C77.0004 66.5996 75.8004 65.7996 71.0004 63.6996C66.0004 61.4996 63.8004 60.1996 62.0004 58.3996C60.7004 57.0996 60.4004 56.6996 59.5004 55.0996C58.4004 52.9996 58.3004 52.2996 58.3004 49.1996C58.3004 46.9996 58.3004 46.2996 58.6004 45.4996C58.9004 44.3996 60.0004 42.1996 60.5004 41.6996C61.5004 40.4996 61.9004 40.1996 62.6004 39.5996C64.7004 37.7996 68.0004 36.6996 71.2004 36.5996C71.6004 36.5996 72.7004 36.6996 73.9004 36.6996C77.1004 36.9996 79.3004 37.6996 81.4004 39.3996C83.0004 40.5996 85.4004 43.5996 85.1004 43.9996C84.9004 44.1996 78.7004 48.3996 78.3004 48.4996C78.1004 48.5996 77.9004 48.4996 77.5004 48.0996C75.4004 45.5996 74.5004 44.9996 72.5004 44.8996C71.0004 44.7996 70.3004 44.9996 69.3004 45.5996C68.3004 46.2996 67.8004 47.2996 67.8004 48.7996C67.8004 50.8996 68.6004 51.8996 71.6004 53.3996C73.5004 54.3996 75.2004 55.0996 75.3004 55.0996C75.5004 55.0996 79.5004 57.0996 80.5004 57.6996C85.4004 60.5996 87.4004 63.4996 87.9004 68.5996C88.0004 72.2996 87.0004 75.7996 84.6004 78.2996Z" fill="white"/>
</g>
<defs>
<clipPath id="clip0_170_491">
<rect width="100" height="100" fill="white"/>
</clipPath>
</defs>
</svg>
